<?xml version="1.0" encoding="utf-8"?>
<!-- Generator: Adobe Illustrator 27.2.0, SVG Export Plug-In . SVG Version: 6.00 Build 0)  -->
<svg version="1.1" id="레이어_1" xmlns="http://www.w3.org/2000/svg" xmlns:xlink="http://www.w3.org/1999/xlink" x="0px"
	 y="0px" viewBox="0 0 15 15" style="enable-background:new 0 0 15 15;" xml:space="preserve">
<style type="text/css">
	.st0{fill:#5F6368;}
</style>
<path class="st0" d="M14,13.3l-3.5-3.5c0.9-1.1,1.3-2.5,1.2-3.8c-0.1-1.4-0.7-2.7-1.8-3.6C8.9,1.4,7.5,0.9,6.1,1
	C4.7,1,3.4,1.6,2.4,2.6c-1,1-1.6,2.3-1.6,3.7C0.8,7.7,1.3,9,2.2,10c0.9,1,2.2,1.7,3.6,1.8c1.4,0.1,2.8-0.3,3.8-1.2l3.5,3.5
	c0.1,0.1,0.1,0.1,0.2,0.1c0.1,0,0.1,0,0.2,0c0.1,0,0.1,0,0.2,0c0.1,0,0.1-0.1,0.2-0.1c0.1-0.1,0.1-0.1,0.1-0.2c0-0.1,0-0.1,0-0.2
	c0-0.1,0-0.1,0-0.2C14.1,13.5,14,13.4,14,13.3L14,13.3z M2,6.4C2,5.6,2.2,4.7,2.7,4c0.5-0.7,1.1-1.3,1.9-1.6C5.4,2.1,6.3,2,7.1,2.2
	C8,2.3,8.7,2.8,9.3,3.4c0.6,0.6,1,1.4,1.2,2.2s0.1,1.7-0.2,2.5C9.9,8.9,9.4,9.5,8.7,10c-0.7,0.5-1.5,0.7-2.4,0.7
	c-1.1,0-2.2-0.5-3.1-1.3C2.4,8.7,2,7.6,2,6.4L2,6.4z"/>
</svg>
